<?xml version="1.0" encoding="UTF-8"?>
<svg id="Layer_1" data-name="Layer 1" xmlns="http://www.w3.org/2000/svg" viewBox="0 0 158.24 161.56">
  <defs>
    <style>
      .cls-1 {
        fill: #fff;
      }

      .cls-2 {
        fill: #e31d40;
      }
    </style>
  </defs>
  <path class="cls-1" d="m86.15,140.46c14.43-15.46,28.75-30.8,43.14-46.21,3.92,5.74,7.68,11.28,11.47,16.8,2.78,4.05,5.53,8.12,8.39,12.11,1.78,2.48,4.84,2.93,7.16,1.26,2.02-1.45,2.58-4.93,1.11-7.08-4.69-6.88-9.38-13.76-14.08-20.62-3.08-4.5-6.24-8.94-9.29-13.46-1.26-1.86-3.54-2.87-5.61-2-1.11.46-2.19,1.23-3.02,2.11-6.89,7.3-13.71,14.66-20.56,21.99-4.18,4.47-8.4,8.91-12.56,13.4-3.98,4.3-7.91,8.64-12.18,13.32-.27-.44-.5-.88-.78-1.28-5.51-7.93-11-15.87-16.53-23.78-6.62-9.48-13.28-18.94-19.91-28.41-2.52-3.61-6.11-3.7-8.86-.23-1.55,1.96-3.11,3.91-4.68,5.85-8.41,10.39-16.82,20.77-25.23,31.16-1.18,1.45-2.51,2.82-3.42,4.43-2.17,3.81,1.35,7.61,4.38,7.57,2.08-.03,3.35-1.04,4.5-2.45,3.35-4.09,6.67-8.2,9.98-12.32,5.56-6.91,11.09-13.84,16.67-20.73,1.96-2.42,2-2.38,3.78.19,6.81,9.82,13.6,19.64,20.43,29.44,6.28,9.01,12.62,18,18.92,27,2.43,3.48,4.8,7,7.29,10.44.64.88,1.51,1.81,2.48,2.19,1.76.69,4.4.68,5.94-1.29,1.31-1.67,1.48-4.33.22-6.2-1.48-2.21-3.04-4.37-4.56-6.56-1.53-2.22-3.05-4.44-4.56-6.63Z"/>
  <path class="cls-1" d="m106.81,95.9c.66-.62,1.2-1.07,1.68-1.58,1.55-1.63,3.03-3.32,4.62-4.9.83-.82.83-1.47.18-2.38-3.03-4.18-6.01-8.39-9.01-12.59-3.24-4.54-6.5-9.06-9.68-13.63-.86-1.23-1.86-2.36-1.85-4.11.08-9.08.05-18.16.05-27.24,0-8.12,0-16.25-.03-24.37-.02-3.17-2.76-5.51-5.79-5.06-2.17.33-3.94,2.14-4.52,4.63-.44,1.9-.44,1.88-2.41,1.88-10.37,0-20.74,0-31.12.02-.91,0-1.83.09-2.73.24-1.99.33-3.13,1.68-3.74,3.46-.59,1.74-.37,3.35,1.06,4.7,1.24,1.17,2.43,2.39,3.64,3.61,1.74,1.76,3.47,3.53,5.03,5.12-3.05,3.14-6.03,6.13-8.93,9.22-1.31,1.4-1.53,3.17-.71,4.89.86,1.8,2.39,2.88,4.39,3.11,1.19.14,2.41.12,3.62.12,10.16,0,20.33,0,30.49-.05,1.08,0,1.37.36,1.36,1.36-.02,4.83.06,9.66-.01,14.5-.01.93-.38,1.96-.88,2.76-.78,1.27-1.84,2.36-2.73,3.56-6.76,9.08-13.49,18.18-20.28,27.24-.57.76-.56,1.29-.07,1.97,1.68,2.38,3.36,4.76,5.01,7.16.48.69.86.65,1.32,0,.93-1.33,1.87-2.65,2.84-3.95,5.1-6.89,10.21-13.78,15.32-20.66,1.53-2.05,3.08-4.09,4.7-6.24,6.41,9.11,12.73,18.07,19.17,27.23Z"/>
  <path d="m86.15,140.46c1.51,2.19,3.03,4.42,4.56,6.63,1.52,2.19,3.07,4.35,4.56,6.56,1.26,1.88,1.08,4.53-.22,6.2-1.53,1.96-4.18,1.97-5.94,1.29-.97-.38-1.84-1.31-2.48-2.19-2.49-3.44-4.85-6.96-7.29-10.44-6.3-9-12.63-17.98-18.92-27-6.83-9.8-13.63-19.63-20.43-29.44-1.78-2.57-1.82-2.61-3.78-.19-5.58,6.89-11.11,13.82-16.67,20.73-3.31,4.12-6.64,8.23-9.98,12.32-1.15,1.41-2.43,2.42-4.5,2.45-3.03.04-6.54-3.76-4.38-7.57.91-1.61,2.25-2.98,3.42-4.43,8.41-10.39,16.82-20.77,25.23-31.16,1.57-1.94,3.13-3.9,4.68-5.85,2.76-3.47,6.34-3.37,8.86.23,6.63,9.47,13.29,18.93,19.91,28.41,5.53,7.91,11.03,15.85,16.53,23.78.28.4.52.84.78,1.28,4.27-4.68,8.2-9.02,12.18-13.32,4.16-4.49,8.38-8.92,12.56-13.4,6.85-7.33,13.67-14.69,20.56-21.99.83-.88,1.91-1.64,3.02-2.11,2.08-.87,4.36.14,5.61,2,3.05,4.52,6.21,8.96,9.29,13.46,4.71,6.86,9.4,13.74,14.08,20.62,1.47,2.15.91,5.63-1.11,7.08-2.32,1.67-5.38,1.21-7.16-1.26-2.86-3.99-5.61-8.06-8.39-12.11-3.79-5.52-7.55-11.06-11.47-16.8-14.38,15.41-28.7,30.75-43.14,46.21Z"/>
  <path class="cls-2" d="m106.81,95.9c-6.45-9.16-12.76-18.12-19.17-27.23-1.62,2.15-3.18,4.19-4.7,6.24-5.11,6.88-10.22,13.77-15.32,20.66-.97,1.3-1.91,2.62-2.84,3.95-.46.66-.84.7-1.32,0-1.66-2.4-3.33-4.77-5.01-7.16-.48-.68-.5-1.21.07-1.97,6.79-9.06,13.52-18.16,20.28-27.24.89-1.2,1.95-2.29,2.73-3.56.5-.8.86-1.83.88-2.76.07-4.83,0-9.66.01-14.5,0-1-.29-1.37-1.36-1.36-10.16.05-20.32.04-30.49.05-1.21,0-2.42.02-3.62-.12-2-.23-3.53-1.32-4.39-3.11-.83-1.72-.61-3.49.71-4.89,2.89-3.09,5.88-6.08,8.93-9.22-1.56-1.59-3.29-3.36-5.03-5.12-1.2-1.21-2.39-2.44-3.64-3.61-1.43-1.34-1.65-2.96-1.06-4.7.61-1.79,1.75-3.14,3.74-3.46.9-.15,1.82-.23,2.73-.24,10.37-.02,20.74-.02,31.12-.02,1.96,0,1.96.01,2.41-1.88.58-2.49,2.35-4.3,4.52-4.63,3.03-.46,5.78,1.89,5.79,5.06.04,8.12.03,16.24.03,24.37,0,9.08.03,18.16-.05,27.24-.02,1.75.99,2.88,1.85,4.11,3.19,4.57,6.45,9.09,9.68,13.63,3,4.2,5.98,8.41,9.01,12.59.66.91.65,1.56-.18,2.38-1.6,1.58-3.08,3.27-4.62,4.9-.48.5-1.01.96-1.68,1.58ZM60.02,30.57c1.36.08,2.46.2,3.55.21,5.79.02,11.58-.03,17.37.03,1.12.01,1.47-.29,1.46-1.38-.04-3.71-.05-7.42.02-11.12.02-1.13-.35-1.4-1.43-1.39-5.42.05-10.83.04-16.25,0-1.56,0-3.12-.15-4.68-.23-.11.14-.21.27-.32.41.95.83,1.9,1.66,2.86,2.49,2.57,2.24,2.76,5.26.47,7.78-.89.98-1.83,1.92-3.05,3.19Z"/>
</svg>