<?xml version="1.0" encoding="utf-8"?>
<!-- Generator: Adobe Illustrator 27.4.1, SVG Export Plug-In . SVG Version: 6.00 Build 0)  -->
<svg version="1.1" id="Layer_1" xmlns="http://www.w3.org/2000/svg" xmlns:xlink="http://www.w3.org/1999/xlink" x="0px" y="0px"
	 viewBox="0 0 2500 1600" style="enable-background:new 0 0 2500 1600;" xml:space="preserve">
<style type="text/css">
	.st0{fill:#FFFFFF;}
	.st1{fill:#E31D40;}
</style>
<path class="st0" d="M1348.52,776.72C1348.52,776.71,1348.52,776.71,1348.52,776.72c-2.83-0.01-5.67-0.01-8.5-0.01
	c-6.79-0.01-13.58,0.01-20.37-0.04c-1.97-0.01-3.61,0.49-5.04,1.98c-3.05,3.18-6.23,6.24-9.35,9.36
	c-7.68,7.68-15.34,15.38-23.02,23.06c-2.5,2.5-2.69,4.68-0.59,7.52c0.25,0.33,0.52,0.65,0.82,0.94c4.16,4.15,8.32,8.29,12.48,12.43
	c4.34,4.32,8.66,8.66,13.02,12.95c2.23,2.19,5.23,2.24,7.45,0.07c6.19-6.06,12.33-12.17,18.43-18.31c0.94-0.95,1.91-1.3,3.19-1.3
	c16.41,0.02,32.83-0.04,49.24,0.08c2.53,0.02,4.21-0.87,5.79-2.69c8.56-9.83,17.18-19.6,25.78-29.39
	c3.68-4.19,7.37-8.38,11.08-12.55c3.45-3.88,3.81-10.38-0.39-14.62c-2.61-2.64-5.77-3.83-9.53-3.12c-2.37,0.45-4.32,1.62-6.13,3.17
	c-3.92,3.35-7.9,6.64-11.85,9.97c-3.12,2.63-6.26,5.23-9.34,7.91c-1.16,1-1.15,1.09-1.99-0.24c-3.09-4.91-7.59-7.16-13.31-7.15
	C1367.1,776.72,1357.81,776.72,1348.52,776.72z"/>
<path d="M1348.52,776.72c9.29,0,18.58,0,27.87,0c5.72,0,10.22,2.25,13.31,7.15c0.84,1.34,0.83,1.25,1.99,0.24
	c3.08-2.67,6.22-5.28,9.34-7.91c3.95-3.32,7.93-6.61,11.85-9.97c1.81-1.55,3.76-2.72,6.13-3.17c3.76-0.71,6.92,0.48,9.53,3.12
	c4.2,4.24,3.84,10.75,0.39,14.62c-3.71,4.17-7.4,8.35-11.08,12.55c-8.6,9.79-17.22,19.56-25.78,29.39
	c-1.58,1.82-3.26,2.71-5.79,2.69c-16.41-0.12-32.82-0.05-49.24-0.08c-1.28,0-2.25,0.35-3.19,1.3c-6.1,6.15-12.24,12.25-18.43,18.31
	c-2.22,2.18-5.22,2.12-7.45-0.07c-4.37-4.29-8.69-8.63-13.02-12.95c-4.16-4.14-8.32-8.28-12.48-12.43
	c-0.29-0.29-0.57-0.61-0.82-0.94c-2.1-2.83-1.91-5.01,0.59-7.52c7.68-7.68,15.34-15.38,23.02-23.06c3.12-3.12,6.3-6.18,9.35-9.36
	c1.43-1.49,3.06-1.99,5.04-1.98c6.79,0.04,13.58,0.03,20.37,0.04C1342.86,776.71,1345.69,776.71,1348.52,776.72
	C1348.52,776.71,1348.52,776.71,1348.52,776.72z M1421.8,773.23c-0.12-0.13-0.24-0.26-0.36-0.38c-0.87,0.61-1.78,1.16-2.59,1.83
	c-2.17,1.82-4.28,3.71-6.44,5.54c-8.12,6.84-16.29,13.62-24.35,20.52c-3.54,3.03-7.4,4.64-12.15,4.6
	c-15.04-0.12-30.07-0.07-45.11,0.02c-2.31,0.01-3.71-1.04-4.66-2.88c-1.25-2.43-0.2-6.8,3.34-7.22c0.87-0.1,1.74-0.21,2.61-0.21
	c14.7-0.02,29.41-0.01,44.11-0.03c0.86,0,1.77-0.06,2.58-0.32c2.06-0.65,3.07-3.12,2.28-5.1c-0.95-2.35-2.95-2.63-5.04-2.63
	c-17.91-0.02-35.82,0-53.74-0.03c-1.05,0-1.82,0.32-2.54,1.05c-7.88,7.9-15.77,15.8-23.67,23.69c-1.14,1.14-2.3,2.26-3.5,3.43
	c0.37,0.42,0.6,0.71,0.86,0.97c2.91,2.86,5.84,5.7,8.72,8.59c2.79,2.8,5.53,5.66,8.3,8.48c0.94,0.96,1.53,0.97,2.31,0.19
	c5.46-5.49,10.93-10.97,16.39-16.47c1.03-1.03,2.24-1.56,3.68-1.59c3.04-0.07,6.08-0.23,9.12-0.22c13.66,0.03,27.32,0.1,40.98,0.18
	c1.39,0.01,2.47-0.36,3.39-1.46c1.82-2.17,3.74-4.25,5.6-6.38c4.17-4.76,8.31-9.55,12.5-14.29c5.4-6.11,10.85-12.19,16.27-18.29
	C1421.09,774.32,1421.42,773.75,1421.8,773.23z"/>
<path class="st0" d="M1421.8,773.23c-0.37,0.53-0.7,1.09-1.13,1.57c-5.42,6.1-10.86,12.18-16.27,18.29
	c-4.19,4.74-8.33,9.53-12.5,14.29c-1.86,2.13-3.78,4.21-5.6,6.38c-0.92,1.1-2,1.47-3.39,1.46c-13.66-0.08-27.32-0.15-40.98-0.18
	c-3.04-0.01-6.08,0.14-9.12,0.22c-1.44,0.04-2.65,0.56-3.68,1.59c-5.46,5.5-10.93,10.97-16.39,16.47c-0.77,0.78-1.37,0.76-2.31-0.19
	c-2.77-2.83-5.5-5.68-8.3-8.48c-2.88-2.89-5.81-5.73-8.72-8.59c-0.26-0.26-0.49-0.55-0.86-0.97c1.2-1.17,2.36-2.29,3.5-3.43
	c7.89-7.89,15.79-15.78,23.67-23.69c0.72-0.72,1.5-1.05,2.54-1.05c17.91,0.03,35.82,0.01,53.74,0.03c2.1,0,4.1,0.29,5.04,2.63
	c0.8,1.97-0.22,4.45-2.28,5.1c-0.81,0.26-1.72,0.32-2.58,0.32c-14.7,0.02-29.41,0.01-44.11,0.03c-0.87,0-1.74,0.11-2.61,0.21
	c-3.55,0.43-4.59,4.79-3.34,7.22c0.95,1.84,2.34,2.89,4.66,2.88c15.04-0.09,30.08-0.14,45.11-0.02c4.75,0.04,8.62-1.57,12.15-4.6
	c8.07-6.9,16.24-13.68,24.35-20.52c2.16-1.82,4.27-3.72,6.44-5.54c0.81-0.68,1.73-1.23,2.59-1.83
	C1421.56,772.97,1421.68,773.1,1421.8,773.23z"/>
<path class="st1" d="M1358.92,696.82c7.79,0,15.58,0,23.37,0c0.54,0,1.08,0,1.62,0.02c1.65,0.05,2.91,0.6,4.05,1.98
	c4.75,5.75,9.65,11.36,14.5,17.02c0.49,0.57,0.97,1.15,1.4,1.76c1.43,2.08,1.35,3.63-0.33,5.52c-2.9,3.27-5.83,6.52-8.75,9.77
	c-5.33,5.96-10.66,11.92-16,17.87c-5.65,6.29-11.29,12.58-16.96,18.85c-1.92,2.13-3.52,2.31-5.53,0.26
	c-2.65-2.7-5.08-5.62-7.61-8.44c-7.65-8.52-15.32-17.03-22.97-25.54c-3.92-4.37-7.83-8.74-11.74-13.13c-1.78-1.99-1.7-3.55,0.07-5.6
	c4.94-5.74,9.9-11.47,14.71-17.32c1.74-2.11,3.65-3.12,6.41-3.08C1343.09,696.89,1351.01,696.82,1358.92,696.82
	C1358.92,696.82,1358.92,696.82,1358.92,696.82z M1359.13,754.47c1.16-4,2.3-7.93,3.44-11.87c1.7-5.86,3.41-11.73,5.09-17.6
	c0.33-1.16,0.1-1.36-1.12-1.35c-3.2,0.03-6.4,0.04-9.6,0.05c-2.32,0.01-4.63,0-6.95,0C1350.16,726.17,1358.36,753.75,1359.13,754.47
	z M1393.33,723.96c-0.08-0.09-0.16-0.18-0.24-0.27c-0.89,0-1.77,0-2.66,0c-4.5,0-8.99,0.03-13.49-0.03c-1.1-0.01-1.7,0.32-1.99,1.4
	c-0.48,1.8-1.07,3.58-1.6,5.37c-1.99,6.73-3.97,13.46-5.95,20.2c-0.23,0.79-0.4,1.61-0.6,2.41c0.13,0.06,0.26,0.13,0.39,0.19
	C1375.92,743.47,1384.63,733.71,1393.33,723.96z M1324.74,723.64c-0.08,0.14-0.16,0.27-0.24,0.41c8.67,9.72,17.33,19.43,26,29.15
	c0.12-0.07,0.25-0.14,0.37-0.22c-0.08-0.47-0.12-0.95-0.25-1.4c-0.36-1.23-0.79-2.45-1.16-3.69c-2.21-7.54-4.44-15.07-6.6-22.62
	c-0.33-1.17-0.85-1.63-2.07-1.62c-4.5,0.04-9,0-13.49-0.02C1326.45,723.64,1325.59,723.64,1324.74,723.64z M1393.99,716.51
	c-0.95-1.06-1.63-1.78-2.27-2.53c-2.46-2.87-4.92-5.75-7.38-8.63c-0.67-0.78-1.43-1.32-2.55-1.31c-5.3,0.03-10.59,0.01-16.02,0.01
	c0.27,0.48,0.54,1.07,0.91,1.59c2.23,3.11,4.57,6.13,6.67,9.32c0.91,1.38,2,1.69,3.44,1.69c5.11,0,10.23,0.03,15.34,0.04
	C1392.64,716.7,1393.14,716.6,1393.99,716.51z M1351.91,703.91c-1.18,0.09-1.95,0.19-2.73,0.19c-4.45,0.02-8.91,0.03-13.36,0
	c-0.97-0.01-1.66,0.36-2.25,1.08c-1.88,2.28-3.77,4.55-5.7,6.8c-1.21,1.41-2.48,2.76-3.93,4.37c0.79,0.08,1.3,0.18,1.81,0.19
	c5.41,0.05,10.83,0.08,16.24,0.11c0.84,0.01,1.44-0.26,1.96-1.03c2.22-3.27,4.54-6.47,6.81-9.71
	C1351.13,705.37,1351.41,704.78,1351.91,703.91z M1366.05,716.4c-0.41-0.55-0.62-0.84-0.83-1.12c-1.73-2.38-3.52-4.73-5.18-7.16
	c-1-1.46-1.15-1.55-2.22-0.09c-1.35,1.84-2.63,3.73-3.95,5.59c-0.61,0.86-1.22,1.72-1.98,2.78
	C1356.66,716.4,1361.2,716.4,1366.05,716.4z"/>
</svg>
