<?xml version="1.0" encoding="UTF-8"?>
<svg id="Layer_1" data-name="Layer 1" xmlns="http://www.w3.org/2000/svg" viewBox="0 0 94.38 94.35">
  <defs>
    <style>
      .cls-1 {
        fill: #e21c40;
      }

      .cls-2 {
        fill: #231f20;
      }
    </style>
  </defs>
  <polygon class="cls-2" points="17.76 49.03 10.39 66 7.05 66 0 49.03 3.7 49.03 8.91 62.02 14.09 49.03 17.76 49.03"/>
  <polygon class="cls-2" points="31.03 49.03 31.03 51.74 22.61 51.74 22.61 56.01 30.63 56.01 30.63 58.82 22.58 58.82 22.58 63.27 31.18 63.27 31.18 66 19.53 66 19.53 49.03 31.03 49.03"/>
  <polygon class="cls-2" points="45.56 49.03 45.56 51.74 37.16 51.74 37.16 56.01 45.17 56.01 45.17 58.82 37.12 58.82 37.12 63.27 45.73 63.27 45.73 66 34.06 66 34.06 49.03 45.56 49.03"/>
  <path class="cls-2" d="m55.19,63.27c3.48,0,5.22-2.07,5.22-6.22,0-3.53-1.74-5.3-5.22-5.3h-3.47v11.52h3.47Zm-6.58,2.73v-16.97h6.58c5.56,0,8.34,2.68,8.34,8.03,0,5.96-2.78,8.95-8.34,8.95h-6.58Z"/>
  <polygon class="cls-2" points="67.11 66 63.92 66 71.04 49.03 74.39 49.03 81.68 66 78.33 66 76.41 61.37 70.84 61.37 71.9 58.64 75.29 58.64 72.64 52.27 67.11 66"/>
  <polygon class="cls-2" points="78.64 49.03 81.98 49.03 86.71 57.21 91.15 49.03 94.38 49.03 88.2 60.07 88.2 66 85.09 66 85.09 60.07 78.64 49.03"/>
  <path class="cls-1" d="m48.92,38.13h-1.87c-13.24,0-24.01-10.87-24.01-24.25,0-1.81.19-3.61.59-5.36l.55-2.49,17.84,10.28v10.51h-3.73v-8.32l-11.43-6.58c-.06.64-.08,1.3-.08,1.95,0,10.66,8.1,19.45,18.41,20.39V12.57S67.29,0,67.29,0l.92,1.62c6.53,11.63,2.5,26.46-9.01,33.07-1.56.9-3.22,1.61-4.9,2.13l-2.41.74v-20.58l9.07-5.19,1.85,3.27-7.19,4.11v13.13c.59-.27,1.16-.56,1.73-.88,9.18-5.27,12.74-16.73,8.46-26.25l-16.89,9.6v23.35Z"/>
  <path class="cls-2" d="m26.9,76.1c-.58.19-1.19.28-1.85.28-2.32,0-3.47-1.15-3.47-3.48,0-2.18,1.15-3.29,3.47-3.29.66,0,1.27.1,1.85.28v.75c-.58-.22-1.16-.33-1.76-.33-1.8,0-2.7.86-2.7,2.58,0,1.85.9,2.79,2.7,2.79.6,0,1.19-.11,1.76-.33v.74Z"/>
  <path class="cls-2" d="m30.28,75.64c.97,0,1.46-.59,1.46-1.77s-.49-1.73-1.46-1.73-1.45.58-1.45,1.73.49,1.77,1.45,1.77h0Zm-2.3-1.76c0-1.62.77-2.45,2.3-2.45s2.32.82,2.32,2.45-.77,2.45-2.32,2.45-2.3-.81-2.3-2.45h0Z"/>
  <path class="cls-2" d="m33.75,76.33v-4.9h.58l.16.63c.49-.41,1.03-.63,1.63-.63,1.2,0,1.81.62,1.81,1.83v3.07h-.85v-3.08c0-.73-.36-1.09-1.08-1.09-.49,0-.95.21-1.39.62v3.55h-.85Z"/>
  <path class="cls-2" d="m39.27,76.1v-.74c.56.18,1.14.28,1.73.28.77,0,1.15-.24,1.15-.7,0-.44-.26-.65-.8-.65h-.7c-1.04,0-1.57-.48-1.57-1.44s.67-1.41,2.03-1.41c.58,0,1.14.08,1.72.24v.74c-.58-.18-1.14-.28-1.72-.28-.82,0-1.22.23-1.22.7,0,.44.26.65.77.65h.7c1.1,0,1.66.48,1.66,1.44s-.67,1.39-2,1.39c-.59,0-1.16-.07-1.73-.23h0Z"/>
  <path class="cls-2" d="m48.35,71.43v4.9h-.59l-.16-.62c-.59.41-1.18.62-1.76.62-1.12,0-1.67-.61-1.67-1.82v-3.08h.85v3.09c0,.73.36,1.09,1.07,1.09.49,0,.96-.21,1.39-.62v-3.56h.86Z"/>
  <rect class="cls-2" x="49.78" y="69.66" width=".85" height="6.67"/>
  <path class="cls-2" d="m52.06,70.64h.54l.18.79h1.32v.7h-1.18v2.81c0,.46.19.69.58.69h.6v.7h-.82c-.82,0-1.22-.45-1.22-1.32v-4.38Z"/>
  <path class="cls-2" d="m56.92,74.05c-.74,0-1.12.27-1.12.79s.29.8.88.8,1.09-.16,1.5-.47v-1.03c-.42-.06-.84-.08-1.26-.08h0Zm-1.97.8c0-1.01.66-1.5,1.97-1.5.42,0,.84.04,1.26.1v-.46c0-.57-.43-.85-1.31-.85-.49,0-1.01.07-1.52.23v-.69c.52-.16,1.03-.24,1.52-.24,1.44,0,2.16.51,2.16,1.53v3.38h-.48l-.29-.5c-.49.33-1.01.5-1.58.5-1.15,0-1.73-.5-1.73-1.49h0Z"/>
  <path class="cls-2" d="m60.42,76.33v-4.9h.58l.16.63c.49-.41,1.03-.63,1.63-.63,1.21,0,1.81.62,1.81,1.83v3.07h-.85v-3.08c0-.73-.36-1.09-1.08-1.09-.48,0-.95.21-1.39.62v3.55h-.85Z"/>
  <path class="cls-2" d="m65.99,70.64h.53l.18.79h1.32v.7h-1.18v2.81c0,.46.19.69.58.69h.6v.7h-.82c-.8,0-1.21-.45-1.21-1.32v-4.38Z"/>
  <path class="cls-2" d="m69.06,76.1v-.74c.56.18,1.14.28,1.72.28.78,0,1.16-.24,1.16-.7,0-.44-.26-.65-.8-.65h-.7c-1.04,0-1.57-.48-1.57-1.44s.67-1.41,2.02-1.41c.58,0,1.15.08,1.73.24v.74c-.58-.18-1.15-.28-1.73-.28-.8,0-1.21.23-1.21.7,0,.44.25.65.77.65h.7c1.1,0,1.66.48,1.66,1.44s-.67,1.39-2.02,1.39c-.58,0-1.15-.07-1.72-.23h0Z"/>
  <g>
    <path class="cls-2" d="m17.94,83.1s.01.02.02.05c.01.03.02.06.03.09s.02.07.03.1c0,.03.01.06.01.07,0,.12-.02.27-.08.44-.05.17-.12.35-.21.54s-.19.39-.31.59c-.12.2-.24.39-.37.57-.13.18-.27.34-.41.49-.14.15-.28.26-.42.35-.05-.05-.11-.1-.18-.17-.07-.07-.14-.13-.22-.21s-.16-.15-.24-.23c-.08-.08-.15-.15-.22-.22.1-.08.22-.19.35-.33s.26-.29.4-.45.27-.34.39-.51c.13-.18.24-.35.33-.51.09-.17.17-.31.22-.45.05-.13.07-.24.06-.32-.01-.04-.03-.07-.05-.08-.02-.02-.07-.02-.13-.02-.22,0-.47.04-.75.13s-.58.21-.89.38c-.31.17-.62.37-.94.6-.32.24-.61.51-.89.81-.28.3-.52.63-.74.99-.22.36-.38.74-.5,1.14.25,0,.49-.01.71-.03.23-.02.44-.03.64-.05.2-.02.4-.03.58-.05s.37-.02.54-.02c.09,0,.19.05.3.15.11.1.21.22.3.36.09.14.17.29.23.43.06.15.09.27.09.36,0,.26-.06.51-.2.77-.13.26-.31.51-.52.75-.22.24-.47.46-.76.67s-.59.39-.91.54c-.32.15-.65.28-.98.36-.33.09-.65.13-.95.13-.04-.03-.09-.08-.16-.15-.06-.07-.13-.14-.21-.22s-.15-.17-.23-.26c-.08-.09-.15-.18-.21-.26-.07-.08-.12-.16-.17-.23-.05-.07-.08-.12-.1-.16.2.03.43.04.71.02.28-.01.57-.05.88-.12.31-.07.62-.16.93-.28s.6-.27.88-.46c.27-.18.51-.4.72-.66s.36-.55.45-.89c-.21,0-.39.01-.56.03-.17.02-.33.04-.49.05-.16.02-.32.04-.48.05-.16.01-.35.02-.55.02-.06,0-.13,0-.21,0-.07,0-.15,0-.23-.02-.07,0-.15-.02-.21-.05s-.12-.05-.17-.09c-.1-.08-.19-.17-.28-.26-.09-.09-.17-.19-.24-.28s-.13-.19-.17-.29-.06-.19-.06-.28c0-.27.07-.58.2-.92s.32-.68.56-1.02c.24-.34.53-.68.85-1,.33-.32.69-.61,1.07-.86.39-.25.79-.46,1.22-.61.43-.15.86-.23,1.3-.23.15,0,.29.02.42.07.13.05.24.11.35.18.1.08.2.16.28.25.08.09.16.18.22.27.06.09.12.17.17.24s.09.13.12.17Z"/>
    <path class="cls-2" d="m17.06,90.64c-.05,0-.12-.02-.2-.06s-.16-.08-.24-.14c-.07-.06-.14-.12-.19-.19-.05-.07-.08-.14-.08-.2.04-.16.08-.34.14-.55s.13-.42.2-.63c.07-.21.14-.42.22-.63.08-.2.15-.39.21-.54.06-.16.12-.29.16-.38s.08-.15.09-.15c.02,0,.07.02.16.07.09.05.18.1.27.17.09.07.18.14.25.21.08.07.11.14.11.19,0,.01,0,.02,0,.04,0,.02,0,.04-.02.06-.03.09-.07.2-.11.32-.04.12-.09.25-.14.38-.05.13-.1.26-.15.4-.05.13-.09.26-.13.37-.04.12-.07.22-.1.3-.03.09-.04.15-.04.19,0,.02.01.03.03.03.04,0,.1-.02.18-.07.08-.05.17-.11.27-.18.1-.08.21-.16.32-.25.11-.09.22-.18.32-.27.1-.09.19-.17.28-.24.08-.07.15-.13.19-.16.03.03.07.07.12.12.04.05.09.1.13.14-.08.08-.18.18-.29.29-.12.11-.25.23-.38.35-.14.12-.28.24-.43.36s-.29.23-.43.32c-.14.09-.27.17-.39.23-.12.06-.23.09-.31.09Zm2.12-5.12s-.02.05-.04.11c-.02.06-.05.12-.08.2-.03.07-.07.15-.11.23-.04.08-.08.16-.12.23-.04.07-.08.12-.11.17-.04.04-.06.07-.09.07-.06,0-.14-.02-.23-.06-.09-.04-.18-.08-.26-.12-.08-.04-.16-.09-.21-.13-.06-.04-.09-.07-.09-.09,0-.08.02-.17.06-.3.04-.12.09-.24.15-.35s.12-.21.17-.3c.06-.08.1-.12.14-.12.06,0,.14.02.24.06.09.04.18.09.27.14.09.05.16.11.23.16.06.05.09.09.09.11Z"/>
    <path class="cls-2" d="m20.52,87.73c-.04.11-.09.23-.13.35-.04.12-.08.24-.12.36.23-.27.41-.49.56-.65.15-.16.27-.29.37-.38.1-.09.18-.15.24-.19.06-.04.12-.06.18-.08.03,0,.09.02.16.05.08.04.16.08.25.13.09.05.17.11.25.16.08.06.13.1.17.14.03.03.03.07.01.12-.04.12-.08.23-.13.35-.04.12-.08.24-.12.36.24-.28.44-.5.6-.67s.29-.3.39-.39c.1-.09.18-.15.24-.18.06-.03.1-.04.13-.04.05,0,.12.02.21.07s.19.11.28.17c.09.07.18.14.25.21.07.07.1.14.1.19,0,.01,0,.02,0,.04,0,.02,0,.04-.02.06-.03.09-.06.2-.11.32-.04.12-.09.25-.14.38-.05.13-.1.26-.15.4-.05.13-.09.26-.13.37-.04.12-.07.22-.1.3s-.04.15-.04.19c0,.02.01.03.03.03.04,0,.1-.02.18-.07s.17-.11.27-.18.21-.16.32-.25c.11-.09.22-.18.32-.27.1-.09.19-.17.28-.24.08-.07.14-.13.19-.16.03.03.07.07.12.12.04.05.09.1.13.14-.08.08-.18.18-.29.29s-.25.23-.38.35c-.14.12-.28.24-.43.36-.15.12-.29.23-.43.32-.14.09-.27.17-.39.23-.12.06-.23.09-.31.09-.05,0-.12-.02-.2-.06s-.16-.08-.24-.14c-.08-.06-.14-.12-.19-.19-.05-.07-.08-.14-.08-.2.03-.15.08-.32.13-.5.05-.19.11-.38.18-.58.06-.2.13-.39.2-.58.07-.19.14-.37.2-.53-.07.09-.17.19-.28.31-.12.12-.25.28-.4.49-.15.2-.31.45-.48.75-.17.3-.34.66-.51,1.08-.02.07-.07.11-.16.11-.04,0-.1,0-.16-.02-.06-.02-.13-.04-.2-.08-.07-.03-.14-.08-.21-.13s-.14-.11-.21-.18c0-.03.01-.1.04-.23s.07-.29.12-.49c.05-.2.11-.42.19-.67.07-.25.15-.5.24-.76-.09.09-.19.21-.32.36s-.27.32-.41.53c-.15.21-.3.45-.45.72-.15.27-.3.58-.43.93-.02.08-.07.11-.15.11-.06,0-.13-.02-.21-.05s-.16-.08-.24-.14c-.08-.06-.16-.12-.24-.19-.08-.07-.15-.14-.22-.21,0-.02.01-.08.03-.18.02-.1.05-.23.08-.38s.08-.33.13-.53c.05-.2.11-.4.18-.62.07-.22.14-.44.22-.67.08-.23.17-.44.26-.65.15.07.32.16.5.27.18.11.35.23.51.37Z"/>
    <path class="cls-2" d="m26.48,88.34c.19-.24.37-.44.53-.6s.3-.28.43-.37c.12-.09.23-.16.31-.19.09-.04.15-.05.19-.05.06,0,.12.02.19.06.07.04.13.1.2.16.07.06.13.12.18.19.06.06.11.12.14.16.04.04.06.08.07.13s.01.09.01.14c0,.17-.03.35-.09.56-.06.2-.13.4-.22.6-.09.2-.2.38-.32.56-.12.18-.24.33-.36.45.1-.04.21-.1.32-.16.11-.06.22-.13.32-.2.11-.07.21-.15.32-.22.1-.08.2-.15.29-.23.22-.17.43-.36.63-.56l.24.27c-.12.11-.25.23-.39.36-.14.13-.3.25-.45.38s-.32.24-.48.35c-.16.11-.32.21-.47.3s-.29.16-.42.21-.24.08-.33.08c-.06,0-.14-.02-.24-.06-.1-.04-.19-.08-.28-.14-.09-.05-.17-.11-.24-.18-.07-.06-.1-.12-.1-.17,0-.03.02-.05.06-.08.04-.02.09-.07.16-.13.07-.06.16-.15.26-.28.1-.12.21-.3.34-.54.07-.13.13-.26.19-.4.06-.14.11-.27.16-.39s.08-.23.11-.31.04-.15.04-.18,0-.06-.01-.07c0-.01-.02-.02-.02-.03-.01,0-.03,0-.04,0-.05.01-.15.09-.3.24s-.33.36-.53.63c-.2.27-.42.61-.65,1s-.44.84-.65,1.34c-.17.48-.34.97-.5,1.47s-.33.99-.49,1.48l-1.36.33c.21-.6.42-1.19.65-1.78.22-.59.44-1.17.66-1.76.22-.59.44-1.18.65-1.77.21-.59.42-1.18.61-1.77.01-.04.02-.07.03-.08,0-.02.03-.02.06-.02.06.02.13.05.21.1.08.05.16.11.24.17.08.06.15.13.22.19.06.06.11.12.13.17,0,.01,0,.03,0,.06,0,.03-.02.06-.03.09l-.18.54Z"/>
    <path class="cls-2" d="m30.74,89.97c.06,0,.13-.03.23-.08.1-.05.21-.12.32-.19.12-.08.24-.16.37-.26.13-.09.25-.19.36-.28.11-.09.21-.17.3-.25s.16-.13.2-.17c.03.03.07.07.12.12.04.05.09.1.13.14-.08.08-.18.18-.29.29s-.25.23-.38.35c-.14.12-.28.24-.43.36-.15.12-.29.23-.43.32-.14.09-.27.17-.39.23-.12.06-.22.09-.31.09-.11,0-.23-.04-.35-.12-.12-.08-.24-.17-.35-.28-.11-.11-.2-.21-.27-.32-.08-.11-.12-.19-.13-.24,0-.02-.01-.05-.01-.08v-.1c0-.18.02-.41.07-.69.04-.28.1-.57.18-.88.08-.31.16-.62.26-.92s.2-.58.31-.81c.22-.48.44-.91.67-1.28.23-.37.46-.7.68-.97.22-.28.43-.51.64-.7.2-.19.39-.34.55-.46.16-.12.3-.2.41-.25.11-.05.19-.08.23-.08.07.03.14.06.21.11.07.05.13.1.2.15.06.05.11.11.16.16s.08.09.1.12c.03.03.05.06.06.08,0,.03.01.06.01.11,0,.09-.02.21-.06.36-.04.15-.12.34-.24.58-.12.23-.28.51-.49.84-.21.33-.48.7-.82,1.14-.16.2-.32.41-.5.62-.15.18-.32.38-.52.59s-.4.42-.6.61c-.1.4-.18.75-.22,1.05s-.06.54-.06.71c0,.11,0,.18.03.22.02.03.04.05.08.05Zm.86-3.97c-.06.14-.12.27-.17.4s-.1.26-.15.38c.11-.13.21-.25.3-.36.09-.12.17-.21.23-.3.08-.1.14-.19.2-.28.25-.35.47-.68.65-.98.18-.3.33-.56.45-.78.12-.23.2-.41.26-.56s.08-.26.08-.32c0-.02,0-.03,0-.04,0,0-.01-.01-.03-.01-.03,0-.1.05-.22.16s-.25.28-.42.51-.35.53-.56.89c-.21.36-.42.79-.63,1.3Z"/>
    <path class="cls-2" d="m32.97,90.64c-.05,0-.12-.02-.2-.06s-.16-.08-.24-.14c-.07-.06-.14-.12-.19-.19-.05-.07-.08-.14-.08-.2.04-.16.08-.34.14-.55s.13-.42.2-.63c.07-.21.14-.42.22-.63.08-.2.15-.39.21-.54.06-.16.12-.29.16-.38s.08-.15.09-.15c.02,0,.07.02.16.07.09.05.18.1.27.17.09.07.18.14.25.21.08.07.11.14.11.19,0,.01,0,.02,0,.04,0,.02,0,.04-.02.06-.03.09-.07.2-.11.32-.04.12-.09.25-.14.38-.05.13-.1.26-.15.4-.05.13-.09.26-.13.37-.04.12-.07.22-.1.3-.03.09-.04.15-.04.19,0,.02.01.03.03.03.04,0,.1-.02.18-.07.08-.05.17-.11.27-.18.1-.08.21-.16.32-.25.11-.09.22-.18.32-.27.1-.09.19-.17.28-.24.08-.07.15-.13.19-.16.03.03.07.07.12.12.04.05.09.1.13.14-.08.08-.18.18-.29.29-.12.11-.25.23-.38.35-.14.12-.28.24-.43.36s-.29.23-.43.32c-.14.09-.27.17-.39.23-.12.06-.23.09-.31.09Zm2.12-5.12s-.02.05-.04.11c-.02.06-.05.12-.08.2-.03.07-.07.15-.11.23-.04.08-.08.16-.12.23-.04.07-.08.12-.11.17-.04.04-.06.07-.09.07-.06,0-.14-.02-.23-.06-.09-.04-.18-.08-.26-.12-.08-.04-.16-.09-.21-.13-.06-.04-.09-.07-.09-.09,0-.08.02-.17.06-.3.04-.12.09-.24.15-.35s.12-.21.17-.3c.06-.08.1-.12.14-.12.06,0,.14.02.24.06.09.04.18.09.27.14.09.05.16.11.23.16.06.05.09.09.09.11Z"/>
    <path class="cls-2" d="m38.6,88.96c-.26.27-.53.51-.79.73-.26.21-.53.4-.8.57-.27.16-.54.31-.82.43-.28.12-.56.22-.86.3-.14.43-.29.88-.44,1.36-.15.48-.31,1-.48,1.54l-1.4.47c.18-.55.35-1.09.51-1.61.17-.52.34-1.02.51-1.51-.11.02-.23.03-.35.04s-.23.02-.36.03l-.08-.55c.18-.02.35-.04.52-.06.16-.02.32-.04.47-.06.42-1.19.83-2.27,1.24-3.23.41-.96.82-1.8,1.24-2.5.42-.71.84-1.27,1.28-1.7.44-.43.89-.71,1.37-.82.06.01.13.04.2.08.07.04.14.08.21.13.07.05.13.1.19.16.06.06.11.11.15.16.02.02.03.04.04.06,0,.02.01.05.01.1,0,.22-.05.47-.14.74-.09.27-.23.55-.4.85-.17.29-.37.6-.6.91-.23.31-.49.62-.77.92-.28.3-.58.6-.9.89s-.64.56-.98.82c-.12.3-.25.63-.39.99-.14.36-.28.76-.44,1.19.25-.07.49-.15.72-.25.23-.1.45-.21.67-.35.22-.14.45-.29.68-.48.23-.18.48-.4.74-.64l.25.28Zm-1.21-3.03c-.04.07-.09.17-.14.28-.05.09-.11.21-.18.36s-.14.32-.23.52c.25-.24.49-.48.72-.74.23-.26.45-.52.65-.78.2-.26.38-.52.55-.78.16-.25.31-.49.42-.72.12-.22.21-.43.27-.61.06-.18.1-.33.1-.45,0-.05-.02-.08-.05-.08-.07,0-.16.05-.27.16-.11.11-.25.28-.42.52s-.37.55-.6.93c-.23.38-.5.84-.81,1.39Z"/>
    <path class="cls-2" d="m42.77,89c-.32.29-.65.57-.99.83-.34.26-.68.51-1.02.75-.05.15-.11.31-.17.48-.06.17-.14.36-.24.58-.1.24-.22.47-.35.7-.13.23-.27.44-.42.64-.15.2-.3.38-.46.55-.16.17-.31.31-.46.43s-.3.21-.44.28c-.14.07-.27.1-.39.1-.06,0-.13-.02-.21-.07s-.16-.1-.24-.17c-.07-.07-.14-.14-.19-.21-.05-.08-.08-.15-.08-.21,0-.23.06-.45.18-.67.12-.22.29-.44.5-.66.21-.22.46-.44.75-.67.29-.23.6-.46.93-.7.1-.28.2-.57.3-.87s.19-.6.29-.9c-.15.2-.3.37-.44.52-.14.15-.27.27-.4.38-.12.1-.23.19-.32.25s-.16.11-.2.14c-.03.02-.06.03-.1.04s-.07.01-.11.01c-.07,0-.14-.02-.23-.06-.08-.04-.16-.09-.23-.16s-.13-.13-.18-.21-.07-.15-.07-.22c0-.08.03-.21.08-.38.05-.17.12-.39.21-.64s.19-.53.31-.84c.12-.31.24-.64.38-.99,0-.02.01-.03.02-.02,0,0,.02,0,.03,0,.07.01.16.04.28.08s.23.09.35.15c.11.05.21.11.29.15s.12.08.12.1c-.01.03-.04.08-.08.18-.04.09-.1.21-.16.34-.06.13-.12.27-.19.43-.07.15-.13.3-.18.44-.06.14-.1.27-.14.38-.04.11-.05.2-.05.25,0,.01,0,.02.02.02.02,0,.08-.03.16-.1.08-.06.19-.17.31-.31.12-.14.27-.32.42-.54.16-.22.32-.48.5-.79.07-.24.13-.43.18-.57.05-.14.08-.21.09-.21.02,0,.08.03.17.08.09.05.18.12.28.19.1.07.19.15.27.22s.12.13.12.17c0,.02,0,.03,0,.05s0,.03-.02.05c-.08.25-.15.48-.21.69-.06.21-.11.39-.16.56s-.09.33-.13.47c-.04.14-.07.28-.11.42.27-.2.53-.39.8-.6s.52-.42.78-.64l.24.28Zm-4.97,4.76c.06,0,.15-.06.27-.19.11-.12.24-.28.37-.48.13-.2.27-.41.4-.65.13-.24.25-.48.36-.71-.14.12-.29.24-.46.38-.17.14-.32.29-.47.45-.15.16-.27.34-.37.52-.1.19-.15.38-.15.59,0,.05.02.08.05.08Z"/>
    <path class="cls-2" d="m42.86,90.64c-.05,0-.12-.02-.2-.06s-.16-.08-.24-.14c-.07-.06-.14-.12-.19-.19-.05-.07-.08-.14-.08-.2.04-.16.08-.34.14-.55s.13-.42.2-.63c.07-.21.14-.42.22-.63.08-.2.15-.39.21-.54.06-.16.12-.29.16-.38s.08-.15.09-.15c.02,0,.07.02.16.07.09.05.18.1.27.17.09.07.18.14.25.21.08.07.11.14.11.19,0,.01,0,.02,0,.04,0,.02,0,.04-.02.06-.03.09-.07.2-.11.32-.04.12-.09.25-.14.38-.05.13-.1.26-.15.4-.05.13-.09.26-.13.37-.04.12-.07.22-.1.3-.03.09-.04.15-.04.19,0,.02.01.03.03.03.04,0,.1-.02.18-.07.08-.05.17-.11.27-.18.1-.08.21-.16.32-.25.11-.09.22-.18.32-.27.1-.09.19-.17.28-.24.08-.07.15-.13.19-.16.03.03.07.07.12.12.04.05.09.1.13.14-.08.08-.18.18-.29.29-.12.11-.25.23-.38.35-.14.12-.28.24-.43.36s-.29.23-.43.32c-.14.09-.27.17-.39.23-.12.06-.23.09-.31.09Zm2.12-5.12s-.02.05-.04.11c-.02.06-.05.12-.08.2-.03.07-.07.15-.11.23-.04.08-.08.16-.12.23-.04.07-.08.12-.11.17-.04.04-.06.07-.09.07-.06,0-.14-.02-.23-.06-.09-.04-.18-.08-.26-.12-.08-.04-.16-.09-.21-.13-.06-.04-.09-.07-.09-.09,0-.08.02-.17.06-.3.04-.12.09-.24.15-.35s.12-.21.17-.3c.06-.08.1-.12.14-.12.06,0,.14.02.24.06.09.04.18.09.27.14.09.05.16.11.23.16.06.05.09.09.09.11Z"/>
    <path class="cls-2" d="m46.38,87.73c-.04.12-.09.23-.13.35s-.09.24-.13.37c.23-.26.42-.47.58-.64s.3-.29.41-.39c.11-.09.2-.16.27-.19.07-.03.12-.05.16-.05.05,0,.12.02.21.07s.19.11.28.17c.09.07.18.14.25.21.07.07.1.14.1.19,0,.01,0,.02,0,.04,0,.02,0,.04-.02.06-.03.09-.06.2-.11.32-.04.12-.09.25-.14.38-.05.13-.1.26-.15.4-.05.13-.09.26-.13.37-.04.12-.07.22-.1.3s-.04.15-.04.19c0,.02.01.03.03.03.04,0,.1-.02.18-.07s.17-.11.27-.18.21-.16.32-.25c.11-.09.22-.18.32-.27.1-.09.19-.17.28-.24.08-.07.14-.13.19-.16.04.03.07.07.12.12.04.05.08.1.12.14-.08.08-.18.18-.29.29s-.25.23-.38.35c-.14.12-.28.24-.43.36-.15.12-.29.23-.43.32-.14.09-.27.17-.39.23-.12.06-.22.09-.31.09-.05,0-.12-.02-.2-.06s-.16-.08-.24-.14c-.08-.06-.14-.12-.2-.19-.05-.07-.08-.14-.08-.2.03-.15.08-.32.13-.5.06-.19.12-.38.18-.58.06-.2.13-.39.2-.59.07-.19.14-.37.2-.53h-.01c-.07.09-.17.2-.29.34-.13.14-.27.31-.43.52-.16.21-.33.47-.51.76-.18.3-.35.65-.52,1.06-.02.05-.04.09-.06.12-.02.03-.05.04-.1.04-.06,0-.13-.02-.21-.05s-.16-.08-.24-.14c-.08-.06-.16-.12-.24-.19-.08-.07-.15-.14-.22-.21,0-.02,0-.08.03-.18.02-.1.05-.23.08-.38s.08-.33.13-.53c.05-.2.11-.4.18-.62.07-.22.14-.44.22-.67.08-.23.17-.44.26-.65.15.07.32.16.5.27.18.11.35.23.51.37Z"/>
    <path class="cls-2" d="m53.82,89.01c-.31.32-.62.61-.92.88-.31.27-.62.51-.92.75-.06.17-.12.34-.19.51-.07.17-.13.34-.21.52-.1.24-.22.47-.36.69-.14.22-.28.42-.44.61-.15.19-.31.35-.47.5-.16.15-.32.28-.46.38s-.29.19-.41.24c-.13.06-.23.09-.32.09-.06,0-.13-.03-.21-.08-.08-.05-.16-.12-.23-.2-.07-.08-.14-.17-.19-.27-.05-.1-.08-.19-.08-.27,0-.19.06-.37.19-.55.13-.18.3-.37.52-.56.22-.19.48-.39.78-.6.3-.21.62-.44.97-.69.08-.21.17-.45.27-.74.1-.28.22-.63.35-1.05-.13.18-.28.36-.45.53-.17.17-.35.33-.53.47-.18.14-.36.25-.54.33-.18.08-.35.13-.5.13-.04,0-.09-.02-.15-.06-.06-.04-.12-.09-.19-.15-.06-.06-.12-.13-.16-.22-.04-.08-.07-.17-.07-.27,0-.12.03-.26.09-.43.06-.17.14-.35.25-.53.11-.19.24-.38.4-.58.16-.2.33-.38.52-.55.19-.17.41-.33.64-.46.23-.14.48-.24.74-.31.04,0,.09.02.17.05.07.03.14.07.21.1.07.04.13.08.18.11.05.04.08.06.08.07,0,0,0,.02-.02.03,0,0-.01,0-.02,0-.08.05-.19.12-.32.21-.13.09-.26.19-.41.31-.14.11-.29.24-.43.37-.14.13-.27.26-.39.39-.12.13-.21.25-.28.37-.07.12-.11.22-.11.32,0,.03,0,.06.02.08s.04.04.07.04c.09,0,.19-.03.3-.09.11-.06.23-.15.35-.25s.24-.21.35-.34.23-.25.33-.37c.11-.12.2-.23.28-.34.08-.1.15-.19.19-.25,0,0,.01-.01.02-.02,0,0,.01-.01.02-.02.03,0,.07.04.11.11.05.07.1.14.14.22s.09.17.12.25c.03.08.05.14.05.18h0s0,.03-.01.05c-.04.13-.09.3-.15.53s-.14.49-.23.79c.23-.18.46-.38.69-.58.23-.2.46-.42.69-.65l.24.29Zm-4.78,4.43c.07,0,.17-.06.31-.17s.28-.25.43-.42.3-.36.44-.57.27-.41.36-.6c-.23.17-.44.33-.64.48-.19.15-.36.3-.5.44-.14.14-.24.28-.32.41-.08.13-.12.26-.12.39,0,.03.01.04.03.04Z"/>
    <path class="cls-2" d="m63.5,83.1s.01.02.02.05c.01.03.02.06.03.09s.02.07.03.1c0,.03.01.06.01.07,0,.12-.02.27-.08.44-.05.17-.12.35-.21.54s-.19.39-.31.59c-.12.2-.24.39-.37.57-.13.18-.27.34-.41.49-.14.15-.28.26-.42.35-.05-.05-.11-.1-.18-.17-.07-.07-.14-.13-.22-.21s-.16-.15-.24-.23c-.08-.08-.15-.15-.22-.22.1-.08.22-.19.35-.33s.26-.29.4-.45.27-.34.39-.51c.13-.18.24-.35.33-.51.09-.17.17-.31.22-.45.05-.13.07-.24.06-.32-.01-.04-.03-.07-.05-.08-.02-.02-.07-.02-.13-.02-.22,0-.47.04-.75.13s-.58.21-.89.38c-.31.17-.62.37-.94.6-.32.24-.61.51-.89.81-.28.3-.52.63-.74.99-.22.36-.38.74-.5,1.14.25,0,.49-.01.71-.03.23-.02.44-.03.64-.05.2-.02.4-.03.58-.05s.37-.02.54-.02c.09,0,.19.05.3.15.11.1.21.22.3.36.09.14.17.29.23.43.06.15.09.27.09.36,0,.26-.06.51-.2.77-.13.26-.31.51-.52.75-.22.24-.47.46-.76.67s-.59.39-.91.54c-.32.15-.65.28-.98.36-.33.09-.65.13-.95.13-.04-.03-.09-.08-.16-.15-.06-.07-.13-.14-.21-.22s-.15-.17-.23-.26c-.08-.09-.15-.18-.21-.26-.07-.08-.12-.16-.17-.23-.05-.07-.08-.12-.1-.16.2.03.43.04.71.02.28-.01.57-.05.88-.12.31-.07.62-.16.93-.28s.6-.27.88-.46c.27-.18.51-.4.72-.66s.36-.55.45-.89c-.21,0-.39.01-.56.03-.17.02-.33.04-.49.05-.16.02-.32.04-.48.05-.16.01-.35.02-.55.02-.06,0-.13,0-.21,0-.07,0-.15,0-.23-.02-.07,0-.15-.02-.21-.05s-.12-.05-.17-.09c-.1-.08-.19-.17-.28-.26-.09-.09-.17-.19-.24-.28s-.13-.19-.17-.29-.06-.19-.06-.28c0-.27.07-.58.2-.92s.32-.68.56-1.02c.24-.34.53-.68.85-1,.33-.32.69-.61,1.07-.86.39-.25.79-.46,1.22-.61.43-.15.86-.23,1.3-.23.15,0,.29.02.42.07.13.05.24.11.35.18.1.08.2.16.28.25.08.09.16.18.22.27.06.09.12.17.17.24s.09.13.12.17Z"/>
    <path class="cls-2" d="m65.08,89.87s.01.03.03.03c.04,0,.1-.02.18-.07.08-.05.17-.11.28-.18s.21-.15.33-.24c.11-.09.22-.18.33-.26s.2-.16.28-.24c.08-.07.15-.13.19-.16.03.03.07.07.12.12.04.05.09.1.13.14-.08.08-.18.18-.3.29-.12.11-.25.23-.39.35-.14.12-.29.24-.44.36-.15.12-.3.22-.44.31-.14.09-.28.17-.4.22-.12.06-.23.09-.31.09-.06,0-.13-.02-.2-.06-.07-.04-.15-.09-.21-.15s-.12-.13-.17-.2c-.04-.07-.07-.14-.07-.21,0-.06.02-.17.06-.33.04-.16.09-.35.16-.57-.16.22-.32.41-.47.58-.15.17-.29.31-.42.43s-.24.22-.34.29c-.1.07-.17.13-.21.16-.03.02-.06.03-.1.04-.04,0-.07.01-.11.01-.07,0-.14-.02-.23-.06-.08-.04-.16-.09-.23-.16s-.13-.13-.18-.21c-.05-.08-.07-.15-.07-.22,0-.08.03-.21.08-.4s.12-.41.21-.66c.09-.26.19-.54.31-.86.12-.32.24-.65.38-1,0-.02.01-.03.02-.02s.02,0,.03,0c.07.01.16.04.28.08s.23.09.35.15c.11.05.21.11.29.15s.12.08.12.1c-.01.03-.04.08-.08.18-.04.09-.1.21-.16.34-.06.13-.12.27-.19.43-.07.15-.13.3-.18.44-.06.14-.1.27-.14.38-.04.11-.05.2-.05.25,0,.01,0,.02.02.02.03,0,.09-.04.19-.12.1-.08.22-.2.36-.37.14-.17.3-.38.48-.64s.36-.58.56-.95l.15-.43s.03-.04.07-.04c.02,0,.08.02.16.07s.17.1.27.17.18.13.25.19c.08.06.12.11.12.13,0,.01,0,.03,0,.06,0,.03,0,.05-.02.07-.04.1-.08.21-.12.34s-.09.27-.14.41c-.05.14-.1.29-.14.43s-.09.28-.13.4c-.04.12-.07.23-.09.33-.02.1-.03.17-.03.21Z"/>
    <path class="cls-2" d="m67.25,90.75c-.06,0-.14-.02-.22-.06s-.17-.1-.25-.17c-.09-.07-.17-.15-.25-.25-.08-.1-.15-.2-.2-.3-.02-.04-.04-.08-.04-.14,0-.05-.01-.12-.01-.19,0-.21.03-.41.09-.62s.15-.41.26-.59c.11-.19.24-.36.4-.53.16-.16.32-.31.51-.43.18-.12.38-.21.58-.28.21-.07.42-.1.63-.1.03,0,.08.02.13.05.06.03.12.08.18.14.06.06.13.12.2.2s.13.15.18.22c.05.07.1.15.13.22.03.07.05.13.05.19-.02.07-.07.14-.17.22-.09.08-.2.16-.33.23-.13.07-.26.13-.4.18s-.26.07-.36.07c-.06,0-.09-.02-.09-.05,0-.04.03-.1.08-.18.05-.08.11-.16.18-.25.07-.09.13-.18.18-.28s.08-.17.08-.24c0-.03,0-.06-.02-.08s-.04-.03-.07-.03c-.08,0-.16.04-.25.11-.09.07-.17.17-.26.29-.09.12-.17.26-.25.41-.08.15-.15.31-.21.47-.06.16-.11.33-.14.49-.04.16-.05.31-.05.45,0,.08.02.13.07.17.05.03.12.05.21.05.24,0,.47-.04.69-.12.22-.08.44-.19.64-.31.21-.13.4-.27.59-.43.19-.16.36-.32.52-.48.04.05.09.09.15.14.06.04.1.08.13.12-.22.24-.46.46-.7.67-.25.21-.51.4-.78.55s-.56.28-.86.37c-.3.09-.62.14-.95.14Z"/>
    <path class="cls-2" d="m70.69,90.75c-.06,0-.14-.02-.22-.06s-.17-.1-.25-.17c-.09-.07-.17-.15-.25-.25-.08-.1-.15-.2-.2-.3-.02-.04-.04-.08-.04-.14,0-.05-.01-.12-.01-.19,0-.21.03-.41.09-.62s.15-.41.26-.59c.11-.19.24-.36.4-.53.16-.16.32-.31.51-.43.18-.12.38-.21.58-.28.21-.07.42-.1.63-.1.03,0,.08.02.13.05.06.03.12.08.18.14.06.06.13.12.2.2s.13.15.18.22c.05.07.1.15.13.22.03.07.05.13.05.19-.02.07-.07.14-.17.22-.09.08-.2.16-.33.23-.13.07-.26.13-.4.18s-.26.07-.36.07c-.06,0-.09-.02-.09-.05,0-.04.03-.1.08-.18.05-.08.11-.16.18-.25.07-.09.13-.18.18-.28s.08-.17.08-.24c0-.03,0-.06-.02-.08s-.04-.03-.07-.03c-.08,0-.16.04-.25.11-.09.07-.17.17-.26.29-.09.12-.17.26-.25.41-.08.15-.15.31-.21.47-.06.16-.11.33-.14.49-.04.16-.05.31-.05.45,0,.08.02.13.07.17.05.03.12.05.21.05.24,0,.47-.04.69-.12.22-.08.44-.19.64-.31.21-.13.4-.27.59-.43.19-.16.36-.32.52-.48.04.05.09.09.15.14.06.04.1.08.13.12-.22.24-.46.46-.7.67-.25.21-.51.4-.78.55s-.56.28-.86.37c-.3.09-.62.14-.95.14Z"/>
    <path class="cls-2" d="m77.39,89.01c-.33.33-.64.6-.93.82-.29.22-.57.4-.83.53s-.52.23-.76.29c-.24.06-.48.09-.7.09-.1,0-.2-.04-.32-.11-.12-.07-.23-.16-.33-.26-.1-.1-.19-.21-.25-.32s-.1-.21-.1-.29c0-.3.04-.57.12-.82.08-.25.19-.47.32-.67.13-.2.28-.37.45-.53.17-.15.35-.28.53-.38.18-.1.37-.18.55-.23.18-.05.35-.08.5-.08.11,0,.22.03.33.1.11.06.21.14.3.24s.16.19.22.3c.06.1.08.19.08.27,0,.12-.05.25-.15.38-.1.13-.25.26-.43.39-.19.13-.41.27-.67.41-.26.14-.55.28-.86.42-.01.09-.02.17-.02.25,0,.11.02.19.07.23s.14.06.27.06c.24,0,.46-.04.67-.12.21-.08.41-.18.6-.31.19-.13.38-.27.56-.43.18-.16.35-.33.53-.49l.26.27Zm-1.89-1.36c-.07,0-.15.04-.24.12-.09.08-.17.18-.26.31-.09.13-.17.27-.25.44-.08.16-.15.33-.2.51.13-.09.26-.18.39-.28.13-.1.24-.2.34-.31.1-.11.18-.22.24-.33.06-.11.09-.22.09-.34,0-.03,0-.06-.03-.09-.02-.03-.05-.04-.09-.04Z"/>
    <path class="cls-2" d="m77.3,88.58c.11-.1.21-.21.32-.33s.2-.25.29-.38c.09-.14.16-.29.22-.45.01-.08.04-.17.07-.26.03-.09.06-.18.1-.25s.07-.14.11-.19c.04-.05.07-.08.1-.08.04.03.11.07.19.14s.17.15.26.22c.09.08.16.15.23.22.07.07.1.11.1.12-.04.17-.06.32-.06.45,0,.13.01.27.03.4.02.13.04.27.06.42.02.15.03.32.03.51,0,.12-.02.25-.06.4-.04.15-.1.28-.2.4.18-.11.36-.23.54-.37.18-.13.34-.26.48-.38.16-.14.32-.28.47-.42l.24.27c-.12.11-.25.23-.38.36-.14.13-.28.25-.43.38-.15.12-.3.24-.45.35-.15.11-.31.21-.46.3-.15.09-.29.16-.43.21s-.27.08-.39.08c-.1,0-.22-.03-.34-.08-.12-.05-.24-.11-.35-.18-.11-.07-.21-.15-.29-.23-.08-.08-.13-.15-.14-.2,0,0,0-.02.02-.05.01-.02.03-.05.05-.07.02-.03.04-.05.06-.07s.03-.03.05-.03c.02,0,.06.02.13.05.06.03.17.05.32.05.08,0,.15-.02.21-.06.06-.04.11-.1.15-.17.04-.07.07-.16.09-.25.02-.09.03-.19.03-.3,0-.15,0-.3-.02-.44-.01-.14-.03-.28-.05-.42-.06.07-.13.15-.21.23s-.16.16-.24.24c-.08.08-.16.15-.24.23-.08.07-.15.14-.22.2l-.26-.27c.08-.08.18-.17.28-.27Z"/>
    <path class="cls-2" d="m80.74,88.58c.11-.1.21-.21.32-.33s.2-.25.29-.38c.09-.14.16-.29.22-.45.01-.08.04-.17.07-.26.03-.09.06-.18.1-.25s.07-.14.11-.19c.04-.05.07-.08.1-.08.04.03.11.07.19.14s.17.15.26.22c.09.08.16.15.23.22.07.07.1.11.1.12-.04.17-.06.32-.06.45,0,.13.01.27.03.4.02.13.04.27.06.42.02.15.03.32.03.51,0,.12-.02.25-.06.4-.04.15-.1.28-.2.4.18-.11.36-.23.54-.37.18-.13.34-.26.48-.38.16-.14.32-.28.47-.42l.24.27c-.12.11-.25.23-.38.36-.14.13-.28.25-.43.38-.15.12-.3.24-.45.35-.15.11-.31.21-.46.3-.15.09-.29.16-.43.21s-.27.08-.39.08c-.1,0-.22-.03-.34-.08-.12-.05-.24-.11-.35-.18-.11-.07-.21-.15-.29-.23-.08-.08-.13-.15-.14-.2,0,0,0-.02.02-.05.01-.02.03-.05.05-.07.02-.03.04-.05.06-.07s.03-.03.05-.03c.02,0,.06.02.13.05.06.03.17.05.32.05.08,0,.15-.02.21-.06.06-.04.11-.1.15-.17.04-.07.07-.16.09-.25.02-.09.03-.19.03-.3,0-.15,0-.3-.02-.44-.01-.14-.03-.28-.05-.42-.06.07-.13.15-.21.23s-.16.16-.24.24c-.08.08-.16.15-.24.23-.08.07-.15.14-.22.2l-.26-.27c.08-.08.18-.17.28-.27Z"/>
  </g>
</svg>