<?xml version="1.0" encoding="UTF-8"?>
<svg id="Layer_1" data-name="Layer 1" xmlns="http://www.w3.org/2000/svg" viewBox="0 0 179.24 158.26">
  <defs>
    <style>
      .cls-1 {
        fill: #fff;
      }

      .cls-2 {
        fill: #e31d40;
      }
    </style>
  </defs>
  <path class="cls-1" d="m144.35,127.81c1.52-1.16,2.84-2.11,4.1-3.13,9.95-8.04,18.86-17.13,27.01-26.96.72-.86,1.41-1.75,2.08-2.66,2.25-3.03,2.32-5.21-.14-8.1-3.9-4.6-7.84-9.18-11.95-13.59-10.6-11.38-22.52-21.1-36.22-28.57-9.28-5.06-19.05-8.67-29.56-10.21-8.58-1.25-17.09-1.06-25.52.95-6.4,1.52-12.64,3.61-18.6,6.41-12.47,5.85-23.55,13.79-33.61,23.12-7.54,7-14.69,14.4-20.77,22.76-1.47,2.02-1.62,4.55-.04,6.44,4.21,5.05,8.31,10.22,12.81,15,5.33,5.67,11.11,10.89,17.28,15.67,5.37,4.17,10.95,7.98,16.87,11.35,9.75,5.55,20.05,9.49,31.14,11.3,8.54,1.39,17,1.01,25.42-.89,5.72-1.29,11.28-3.06,16.82-5.47-2.77-2.55-5.15-5.2-4.15-9.35-.23.06-.39.09-.53.15-5.48,2.73-11.28,4.54-17.32,5.43-8.09,1.18-16.18,1.04-24.19-.87-10.34-2.47-19.66-7.19-28.5-12.93-7.49-4.87-14.33-10.61-20.73-16.81-4.93-4.77-9.44-9.97-14.15-14.97-.57-.61-.21-1.03.18-1.5,8.17-10.01,17.32-19.02,27.67-26.77,7.48-5.6,15.32-10.61,24-14.21,6.85-2.84,13.92-4.81,21.32-5.39,6.77-.53,13.47.21,20.06,1.88,7.07,1.79,13.71,4.66,20.02,8.25,9.3,5.29,17.84,11.61,25.55,19.06,5.52,5.32,11.06,10.6,15.95,16.53.83,1.01.87,1.74-.02,2.68-1.17,1.24-2.25,2.57-3.38,3.85-7.89,8.9-16.47,17.05-26.03,24.07,2.35,2.47,4.72,4.96,7.13,7.5Z"/>
  <path class="cls-1" d="m125.64,88.99c-.17-4.45-1.55-10.6-4.93-16.19-5.42-8.98-13.17-14.72-23.48-16.94-6.03-1.29-11.94-1.14-17.88.61-4.64,1.37-8.83,3.53-12.52,6.54-7.33,5.99-11.65,13.76-12.97,23.17-1.21,8.55.58,16.46,4.98,23.82,7.64,12.77,23.78,19.96,39.06,16.19,4.83-1.19,9.27-3.2,13.27-6.17.58-.43,1.06-.86,1.8-.08,2.16,2.31,4.41,4.55,6.63,6.8,1.2,1.22,2.44,2.39,3.62,3.62.38.39.87.84.04,1.4-1.35.92-1.56,2.29-.54,3.6.55.72,1.25,1.33,1.9,1.98,6.53,6.55,13.05,13.1,19.6,19.63,1.69,1.69,2.53,1.71,4.21.04,2.55-2.51,5.02-5.11,7.55-7.65.83-.83.79-1.71.28-2.61-.3-.53-.74-1-1.18-1.44-6.88-6.9-13.77-13.79-20.67-20.69-1.34-1.34-2.96-1.3-4.18.16-.49.58-.89.51-1.36.1-.41-.36-.79-.74-1.17-1.13-2.87-2.91-5.71-5.84-8.6-8.72-1.39-1.39-1.42-1.35-.25-2.79.21-.26.4-.53.58-.81,4.06-6.22,6.36-12.97,6.22-22.47Z"/>
  <path class="cls-2" d="m94.84,13.27s.02,0,.03,0c0-1.29,0-2.58,0-3.87,0-1.29.02-2.58-.03-3.87-.03-.7-.1-1.42-.28-2.09-.62-2.25-2.78-3.59-5.44-3.42-2.04.12-4.1,1.79-4.15,3.93-.13,6.31-.09,12.63.06,18.95.02.9.89,1.97,1.65,2.61,1.52,1.28,3.37,1.36,5.16.54,1.96-.89,2.97-2.48,2.99-4.65.02-2.71,0-5.41,0-8.12Z"/>
  <path class="cls-2" d="m128.75,10.95c-2.16-.08-3.12.51-4.45,2.78-1.93,3.3-3.72,6.69-5.65,9.99-.82,1.41-.81,2.87-.61,4.35.2,1.43,2.13,3.14,3.53,3.37,2.56.42,4.66-.29,5.99-2.58,2.07-3.56,4.08-7.15,6.03-10.77,1.59-2.94-1.14-7.71-4.83-7.13Z"/>
  <path class="cls-2" d="m50.91,10.95c-4.02-.1-6.64,3.69-4.94,7.04,1.9,3.74,3.99,7.4,6.19,10.97,1.7,2.74,4.7,3.28,7.39,1.63,2.02-1.24,2.67-4.48,1.3-6.93-1.93-3.45-3.97-6.84-5.91-10.28-.96-1.7-2.34-2.54-4.03-2.43Z"/>
  <path d="m144.35,127.81c-2.41-2.53-4.78-5.03-7.13-7.5,9.56-7.02,18.15-15.17,26.03-24.07,1.13-1.28,2.21-2.61,3.38-3.85.88-.94.85-1.67.02-2.68-4.89-5.92-10.43-11.21-15.95-16.53-7.71-7.44-16.26-13.77-25.55-19.06-6.31-3.59-12.95-6.46-20.02-8.25-6.59-1.66-13.28-2.41-20.06-1.88-7.4.58-14.47,2.55-21.32,5.39-8.68,3.6-16.52,8.61-24,14.21-10.35,7.75-19.5,16.76-27.67,26.77-.39.47-.75.9-.18,1.5,4.71,5,9.22,10.2,14.15,14.97,6.4,6.2,13.24,11.94,20.73,16.81,8.84,5.74,18.16,10.46,28.5,12.93,8.01,1.91,16.1,2.06,24.19.87,6.03-.88,11.83-2.7,17.32-5.43.14-.07.3-.09.53-.15-1,4.15,1.38,6.81,4.15,9.35-5.54,2.41-11.1,4.18-16.82,5.47-8.42,1.9-16.88,2.28-25.42.89-11.1-1.81-21.39-5.75-31.14-11.3-5.92-3.37-11.49-7.18-16.87-11.35-6.17-4.78-11.95-10-17.28-15.67-4.5-4.79-8.59-9.95-12.81-15-1.58-1.9-1.44-4.42.04-6.44,6.09-8.35,13.23-15.76,20.77-22.76,10.06-9.33,21.14-17.27,33.61-23.12,5.96-2.8,12.2-4.89,18.6-6.41,8.43-2.01,16.94-2.2,25.52-.95,10.51,1.54,20.28,5.14,29.56,10.21,13.7,7.47,25.62,17.19,36.22,28.57,4.11,4.41,8.05,8.99,11.95,13.59,2.45,2.9,2.39,5.07.14,8.1-.67.9-1.36,1.79-2.08,2.66-8.16,9.83-17.07,18.92-27.01,26.96-1.26,1.02-2.58,1.97-4.1,3.13Z"/>
  <path d="m125.64,88.99c.14,9.5-2.16,16.26-6.22,22.47-.18.28-.37.55-.58.81-1.17,1.44-1.14,1.4.25,2.79,2.89,2.89,5.73,5.81,8.6,8.72.38.39.76.77,1.17,1.13.47.41.87.49,1.36-.1,1.22-1.46,2.84-1.49,4.18-.16,6.89,6.89,13.78,13.79,20.67,20.69.44.44.88.91,1.18,1.44.52.9.55,1.78-.28,2.61-2.53,2.53-5,5.13-7.55,7.65-1.68,1.66-2.52,1.64-4.21-.04-6.55-6.53-13.07-13.08-19.6-19.63-.65-.65-1.34-1.26-1.9-1.98-1.01-1.32-.81-2.69.54-3.6.83-.56.34-1.01-.04-1.4-1.18-1.23-2.42-2.4-3.62-3.62-2.22-2.25-4.46-4.49-6.63-6.8-.74-.79-1.22-.35-1.8.08-4,2.97-8.44,4.98-13.27,6.17-15.29,3.77-31.43-3.43-39.06-16.19-4.4-7.35-6.19-15.27-4.98-23.82,1.33-9.41,5.64-17.18,12.97-23.17,3.69-3.01,7.88-5.17,12.52-6.54,5.95-1.75,11.86-1.91,17.88-.61,10.32,2.22,18.06,7.96,23.48,16.94,3.38,5.6,4.76,11.74,4.93,16.19Zm-36.02,30.28c15.13.68,28.54-13.17,28.36-28.27-.18-15.11-12.51-28.35-28.62-28.28-15.72.07-28.07,13.51-28.11,28.41-.05,15.15,13.34,28.76,28.38,28.13Z"/>
  <path class="cls-2" d="m94.84,13.27c0,2.71.02,5.41,0,8.12-.02,2.17-1.03,3.76-2.99,4.65-1.8.82-3.64.74-5.16-.54-.76-.65-1.63-1.72-1.65-2.61-.15-6.31-.19-12.63-.06-18.95.04-2.14,2.11-3.8,4.15-3.93,2.66-.16,4.82,1.17,5.44,3.42.19.67.26,1.39.28,2.09.05,1.29.02,2.58.03,3.87,0,1.29,0,2.58,0,3.87-.01,0-.02,0-.03,0Z"/>
  <path class="cls-2" d="m128.75,10.95c3.69-.58,6.41,4.2,4.83,7.13-1.95,3.62-3.97,7.21-6.03,10.77-1.33,2.29-3.43,3-5.99,2.58-1.4-.23-3.33-1.93-3.53-3.37-.2-1.48-.21-2.94.61-4.35,1.93-3.3,3.72-6.69,5.65-9.99,1.33-2.27,2.29-2.86,4.45-2.78Z"/>
  <path class="cls-2" d="m50.91,10.95c1.69-.11,3.07.73,4.03,2.43,1.94,3.44,3.98,6.83,5.91,10.28,1.37,2.45.72,5.69-1.3,6.93-2.69,1.65-5.69,1.12-7.39-1.63-2.21-3.57-4.29-7.23-6.19-10.97-1.71-3.35.91-7.14,4.94-7.04Z"/>
  <path class="cls-1" d="m89.62,119.27c-15.04.63-28.42-12.98-28.38-28.13.04-14.9,12.4-28.34,28.11-28.41,16.11-.07,28.44,13.17,28.62,28.28.18,15.09-13.23,28.95-28.36,28.27Zm3.28-11.39c.02-1.84-.81-2.93-2.67-3.36-.8-.19-1.65-.22-2.47-.3-5.35-.51-10.21-4.98-11.18-10.23-.14-.76-.44-1.52-.84-2.18-.83-1.35-2.33-1.74-3.96-1.16-1.57.56-2.34,1.6-2.02,3.27.37,1.9.72,3.89,1.55,5.61,3.59,7.46,9.83,11.1,17.91,11.83,2.06.19,3.66-1.41,3.68-3.48Zm-3.6-24.14c-3.82-.44-7.38,3.91-7.25,7.62.13,3.74,3.58,7.26,7.37,7.26,4.33,0,7.54-3.16,7.55-7.45.01-4.31-3.19-7.41-7.67-7.43Zm-18.71,1.11c-.05,1.89,1.6,3.56,3.54,3.6,1.82.04,3.43-1.75,3.48-3.85.03-1.65-1.62-3.29-3.36-3.34-2.26-.07-3.59,1.24-3.65,3.6Z"/>
  <path d="m92.91,107.87c-.02,2.07-1.62,3.67-3.68,3.48-8.08-.73-14.32-4.37-17.91-11.83-.83-1.72-1.19-3.71-1.55-5.61-.32-1.67.45-2.71,2.02-3.27,1.62-.58,3.12-.19,3.96,1.16.4.65.7,1.42.84,2.18.97,5.25,5.83,9.71,11.18,10.23.83.08,1.67.12,2.47.3,1.85.43,2.68,1.53,2.67,3.36Z"/>
  <path class="cls-2" d="m89.31,83.73c4.48.02,7.68,3.12,7.67,7.43-.01,4.28-3.22,7.45-7.55,7.45-3.78,0-7.23-3.51-7.37-7.26-.13-3.71,3.42-8.06,7.25-7.62Z"/>
  <path d="m70.6,84.84c.06-2.35,1.39-3.66,3.65-3.6,1.75.05,3.4,1.69,3.36,3.34-.04,2.1-1.66,3.89-3.48,3.85-1.94-.04-3.59-1.72-3.54-3.6Z"/>
</svg>